# xmcd
#
# Track frame offsets:
#	150
#	18336
#	32275
#	47055
#	65096
#	85930
#	100980
#	112161
#	125125
#	140757
#	158868
#	179879
#	195179
#	211157
#	224360
#	237220
#	247065
#	260545
#	275500
#	291154
#	306368
#	318521
#	329992
#	340123
#
# Disc length: 4769 seconds
# Revision: 1
# Processed by: cddbd v1.5.2PL0 Copyright (c) Steve Scherf et al.
# Submitted via: dBpowerAMP V12.0
#
DISCID=80129f18
DTITLE=Various Artist - Boogie Presents Silver Roads
DYEAR=1972
DGENRE=Country Rock
TTITLE0=Country Radio - Gypsy Queen
TTITLE1=Axiom - Arkansas Grass
TTITLE2=Russell Morris - Lay In The Graveyard
TTITLE3=Brian Cadd and Don Mudie - Show Me The Way
TTITLE4=The Dingoes - Starting Today
TTITLE5=Flying Circus - The Longest Day
TTITLE6=Anne Kirkpatrick - Feel A Whole Lot Better
TTITLE7=Third Union Band - Hyway Ryder
TTITLE8=Richard Clapton - Down The Road
TTITLE9=Home - Forget Me Not
TTITLE10=John J. Francis - Play Mumma, Sing Me A Song
TTITLE11=Carrl and Janie Myriad - Back In The Wildwoods Again
TTITLE12=Fotheringay feat. Trevor Lucas - The Ballad Of Ned Kelly
TTITLE13=Quinn - The Mighty Quinn
TTITLE14=Bluestone - Wind And Rain
TTITLE15=Sundown - Outback Dan
TTITLE16=Saltbush - Brown Bottle Blues
TTITLE17=Uncle Bob’s Band - Mr. Domestic
TTITLE18=Digby Richards - People Call Me Country
TTITLE19=Lee Conway - I Just Didn't Hear
TTITLE20=Johnny Chester - Midnight Bus
TTITLE21=Daddy Cool - Just As Long As We're Together
TTITLE22=Gary Young’s Hot Dog - Rock-a-Billy Beatin' Boogie Band
TTITLE23=Autodrifters - The Birth of The Ute
EXTD=
EXTT0=
EXTT1=
EXTT2=
EXTT3=
EXTT4=
EXTT5=
EXTT6=
EXTT7=
EXTT8=
EXTT9=
EXTT10=
EXTT11=
EXTT12=
EXTT13=
EXTT14=
EXTT15=
EXTT16=
EXTT17=
EXTT18=
EXTT19=
EXTT20=
EXTT21=
EXTT22=
EXTT23=
PLAYORDER=
